<svg xmlns="http://www.w3.org/2000/svg" width="30" height="30" viewBox="0 0 30 30">
    <g id="Path" fill="#d8d8d8">
        <path d="M 27 29.29290008544922 L 15.35354995727539 17.64645004272461 L 15 17.29289054870605 L 14.64645004272461 17.64645004272461 L 3 29.29290008544922 L 0.707099974155426 27 L 12.35354995727539 15.35354995727539 L 12.70711040496826 15 L 12.35354995727539 14.64645004272461 L 0.707099974155426 3 L 3 0.707099974155426 L 14.64645004272461 12.35354995727539 L 15 12.70711040496826 L 15.35354995727539 12.35354995727539 L 27 0.707099974155426 L 29.29290008544922 3 L 17.64645004272461 14.64645004272461 L 17.29289054870605 15 L 17.64645004272461 15.35354995727539 L 29.29290008544922 27 L 27 29.29290008544922 Z" stroke="none" style="&#10;    fill: #b7b5b5;&#10;"/>
        <path d="M 3 1.414220809936523 L 1.414220809936523 3 L 12.70710945129395 14.29288959503174 L 13.41420936584473 15 L 12.70710945129395 15.70711040496826 L 1.414220809936523 27 L 3 28.58577919006348 L 14.29288959503174 17.29288864135742 L 15 16.58578872680664 L 15.70711040496826 17.29288864135742 L 27 28.58577919006348 L 28.58577919006348 27 L 17.29288864135742 15.70711040496826 L 16.58578872680664 15 L 17.29288864135742 14.29288959503174 L 28.58577919006348 3 L 27 1.414220809936523 L 15.70711040496826 12.70710945129395 L 15 13.41420936584473 L 14.29288959503174 12.70710945129395 L 3 1.414220809936523 M 3 0 L 15 12 L 27 0 L 30 3 L 18 15 L 30 27 L 27 30 L 15 18 L 3 30 L 0 27 L 12 15 L 0 3 L 3 0 Z" stroke="none" fill="#707070" style="&#10;    fill: #b7b5b5;&#10;"/>
    </g>
</svg>