<svg xmlns="http://www.w3.org/2000/svg" width="92" height="92" viewBox="0 0 92 92">
  <g id="Group_8" data-name="Group 8" transform="translate(-820 -1590)">
    <circle id="Oval" cx="46" cy="46" r="46" transform="translate(820 1590)" fill="#daffb0"/>
    <g id="Group_11" data-name="Group 11" transform="translate(853 1624)">
      <path id="Shape" d="M.359,10.175A.364.364,0,0,1,.1,10.068.353.353,0,0,1,0,9.812V6.847a2.5,2.5,0,0,1,2.515-2.47H9.262V.353A.356.356,0,0,1,9.621,0h7.4a.357.357,0,0,1,.36.353V4.387h3.388a.353.353,0,1,1,0,.706H2.515a1.783,1.783,0,0,0-1.8,1.765V9.823A.356.356,0,0,1,.359,10.175Zm10.7-8.763h4.531a.356.356,0,0,1,.359.353V4.377h.718V.706H9.98V4.377H10.7V1.765A.356.356,0,0,1,11.057,1.412Zm.359.706V4.377h3.812V2.118Z" transform="translate(0.334 0)" fill="#417505"/>
      <path id="Shape-2" data-name="Shape" d="M22.683,16.79H5.5a.353.353,0,1,1,0-.706H22.683a.357.357,0,0,0,.359-.354V8.743H14.2v3.282a.356.356,0,0,1-.359.353H9.933a.356.356,0,0,1-.359-.353V8.743H.359A.356.356,0,0,1,0,8.39V1.058A1.069,1.069,0,0,1,1.077,0H22.683A1.069,1.069,0,0,1,23.76,1.058V8.171a.348.348,0,0,1,0,.438V15.73A1.07,1.07,0,0,1,22.683,16.79ZM10.292,6.554v5.118h3.193V6.554Zm-.359-.706h3.912A.356.356,0,0,1,14.2,6.2V8.036h8.837V1.058a.356.356,0,0,0-.359-.353H1.077a.356.356,0,0,0-.359.353V8.036H9.574V6.2A.356.356,0,0,1,9.933,5.848Z" transform="translate(1.771 5.799)" fill="#417505"/>
      <path id="Path" d="M.359,0A.356.356,0,0,0,0,.353V7.292A1.068,1.068,0,0,0,1.078,8.351H5.369a.353.353,0,1,0,0-.706H1.078a.356.356,0,0,1-.359-.353V.353A.356.356,0,0,0,.359,0Z" transform="translate(1.771 14.237)" fill="#417505"/>
      <path id="Path-2" data-name="Path" d="M24.12,0h-2.9a.356.356,0,0,0-.359.353.356.356,0,0,0,.359.353h2.9a1.781,1.781,0,0,1,1.8,1.765V17.142a1.749,1.749,0,0,1-.526,1.248,1.813,1.813,0,0,1-1.27.517H2.515a1.781,1.781,0,0,1-1.8-1.765V5.911a.356.356,0,0,0-.359-.353A.356.356,0,0,0,0,5.911V17.142a2.493,2.493,0,0,0,2.515,2.471h21.6a2.493,2.493,0,0,0,2.515-2.471V2.471A2.493,2.493,0,0,0,24.12,0Z" transform="translate(0.334 4.387)" fill="#417505"/>
      <path id="Shape-3" data-name="Shape" d="M1.077,2.118A1.07,1.07,0,0,1,0,1.058,1.069,1.069,0,0,1,1.077,0,1.07,1.07,0,0,1,2.155,1.058,1.07,1.07,0,0,1,1.077,2.118Zm0-1.412a.353.353,0,1,0,.36.353A.356.356,0,0,0,1.077.706Z" transform="translate(12.574 14.605)" fill="#417505"/>
    </g>
  </g>
</svg>
