<svg xmlns="http://www.w3.org/2000/svg" width="92" height="92" viewBox="0 0 92 92">
  <g id="Group_6" data-name="Group 6" transform="translate(-190 -1590)">
    <circle id="Oval" cx="46" cy="46" r="46" transform="translate(190 1590)" fill="#fae5ff"/>
    <g id="Group_10" data-name="Group 10" transform="translate(218 1624)">
      <path id="Shape" d="M32.617,24h-.71a.446.446,0,0,1-.418-.374H4.636A.446.446,0,0,1,4.218,24h-.71a.444.444,0,0,1-.418-.374H1.3A1.292,1.292,0,0,1,0,22.342V20.725a.394.394,0,0,1,.418-.414H3.3a2.131,2.131,0,0,1-.46-1.327V2.156A2.141,2.141,0,0,1,5.011,0H30.989A2.141,2.141,0,0,1,33.16,2.156V18.943a2.135,2.135,0,0,1-.46,1.327h2.882a.417.417,0,0,1,.418.414v1.658a1.292,1.292,0,0,1-1.3,1.285h-1.67A.445.445,0,0,1,32.617,24ZM.835,21.1v1.2a.464.464,0,0,0,.46.456H34.7a.464.464,0,0,0,.46-.456V21.1H.835ZM5.011.829A1.317,1.317,0,0,0,3.676,2.156V18.985a1.331,1.331,0,0,0,1.253,1.327H31.072a1.331,1.331,0,0,0,1.253-1.327V2.156A1.317,1.317,0,0,0,30.989.829Z" fill="#9e13c0"/>
      <path id="Path" d="M4.41,0H.39A.373.373,0,0,0,0,.4.373.373,0,0,0,.39.8H4.41A.373.373,0,0,0,4.8.4.4.4,0,0,0,4.41,0Z" transform="translate(16 21.6)" fill="#9e13c0"/>
      <path id="Shape-2" data-name="Shape" d="M26.781,16H.419A.389.389,0,0,1,0,15.616V.427A.4.4,0,0,1,.419,0H26.781A.4.4,0,0,1,27.2.427V15.574A.4.4,0,0,1,26.781,16ZM.837.853V15.189H26.363V.853H.837Z" transform="translate(4 2.4)" fill="#9e13c0"/>
    </g>
  </g>
</svg>
