<svg xmlns="http://www.w3.org/2000/svg" width="92" height="92" viewBox="0 0 92 92">
  <g id="Group_9" data-name="Group 9" transform="translate(-1149 -1590)">
    <circle id="Oval" cx="46" cy="46" r="46" transform="translate(1149 1590)" fill="#c9ebff"/>
    <g id="Group_12" data-name="Group 12" transform="translate(1181 1622)">
      <path id="Shape" d="M13.934,22.78H8.784c-.024-.471-.052-.789-.059-.876h5.209a.731.731,0,0,0,.7-.633c.188-2.066.331-4.205.332-4.226-.213-2.679-3.6-3.524-4.274-3.667l-4.072,4.76a7.274,7.274,0,0,0-.735-.484L9.771,13.11a3.2,3.2,0,0,1-1.045-.742l-.013.005a3.836,3.836,0,0,1-2.77,1.586H5.8a3.607,3.607,0,0,1-2.531-1.033c.121-.294.232-.6.33-.919a2.883,2.883,0,0,0,2.241,1.076h.109c.11,0,2.7-.106,3.748-5.16a.867.867,0,0,0-.411-.929,10.412,10.412,0,0,1-3.4-3.025A7.7,7.7,0,0,1,4.1,6.035a.822.822,0,0,0-.742-.475H3.326l-.03,0H3.28A6.841,6.841,0,0,0,5.414,2.982l-.037-.006C5.6,1.648,5.206,1.1,5.025.92A4.857,4.857,0,0,0,1.863,2.6,5.548,5.548,0,0,0,.821,4.847C.419,4.719.113,4.6,0,4.559A5.68,5.68,0,0,1,5.624,0c.085,0,.132,0,.132,0a5.892,5.892,0,0,1,4.793,2.244,8.817,8.817,0,0,1,1.293,5.47A15.9,15.9,0,0,1,11.4,10.81a10.588,10.588,0,0,1-1.809,1.177,2.444,2.444,0,0,0,1.123.5,8.975,8.975,0,0,1,2.475.866,4.561,4.561,0,0,1,2.654,3.688c0,.022-.149,2.237-.338,4.308A1.61,1.61,0,0,1,13.934,22.78ZM6.044.9A3.564,3.564,0,0,1,6.266,2.9,8.839,8.839,0,0,0,9.719,6.236,1.745,1.745,0,0,1,10.547,8.1,11.967,11.967,0,0,1,9.6,10.98a9.757,9.757,0,0,0,1.021-.675c.26-1.161.974-5.137-.768-7.531A4.855,4.855,0,0,0,6.044.9Z" transform="translate(12.223 0)" fill="#2372f5"/>
      <path id="Path" d="M0,.788,1.492,2.51a9.971,9.971,0,0,1,1.72.652L.473,0C.325.273.167.536,0,.788Z" transform="translate(14.408 14.234)" fill="#2372f5"/>
      <path id="Shape-2" data-name="Shape" d="M18.531,22.805H1.693A1.729,1.729,0,0,1,.1,21.288a18,18,0,0,1,.048-4.2A4.524,4.524,0,0,1,2.8,13.424a9,9,0,0,1,2.47-.859,2.5,2.5,0,0,0,1.876-1.75l-.048-.049-.012-.011c-.019-.019-.038-.039-.055-.059A9,9,0,0,1,4.957,5.14c0-.083,0-.168.012-.315-.063-1.2.1-2.721,1.246-3.106A4.369,4.369,0,0,1,9.454,0l.2,0a6.356,6.356,0,0,1,2.167.481,10.627,10.627,0,0,0,2.955.744c.058,0,.127,0,.21-.01a.312.312,0,0,1,.056,0h.031a.377.377,0,0,1,.357.256,4.585,4.585,0,0,1-.262,2.945,5.045,5.045,0,0,1,.052.729A6.059,6.059,0,0,1,15,6.737a9.755,9.755,0,0,1-2,3.832,2.615,2.615,0,0,0,1.956,2,8.985,8.985,0,0,1,2.469.859,4.527,4.527,0,0,1,2.648,3.659,25.386,25.386,0,0,1,.018,4.2A1.7,1.7,0,0,1,18.531,22.805ZM6.216,13.172h0a3.192,3.192,0,0,1-.8.255l-.008,0H5.4a8.1,8.1,0,0,0-2.136.738,3.734,3.734,0,0,0-2.248,2.971l-.008.075A17.3,17.3,0,0,0,.967,21.2a.863.863,0,0,0,.725.733H18.531a.831.831,0,0,0,.7-.724,24.666,24.666,0,0,0-.018-4.038v-.028a3.735,3.735,0,0,0-2.249-2.971,8.2,8.2,0,0,0-2.138-.738h-.006l-.008,0a3.136,3.136,0,0,1-.727-.222,6.185,6.185,0,0,1-3.92,1.55c-.1,0-.187,0-.266-.007a6.209,6.209,0,0,1-3.676-1.575Zm1.631-1.759a3.713,3.713,0,0,1-.874,1.249,5.264,5.264,0,0,0,2.972,1.21c.07,0,.141.005.211.005A5.209,5.209,0,0,0,13.3,12.705a3.777,3.777,0,0,1-.952-1.358c-.108.05-.22.095-.353.142a3.467,3.467,0,0,1-1.966.608H10.02A3.9,3.9,0,0,1,7.847,11.414Zm-1.2-5.746a1.977,1.977,0,0,0-.613,1.088,8.074,8.074,0,0,0,1.648,3.362,3.329,3.329,0,0,0,.3.3,2.285,2.285,0,0,0,.871.513,4.33,4.33,0,0,0,1.263.209A2.754,2.754,0,0,0,11.3,10.86a.6.6,0,0,0,.15-.08.72.72,0,0,1,.137-.076l.017-.013.026-.02c.027-.019.053-.039.078-.059A8.186,8.186,0,0,0,14.163,6.5a5.314,5.314,0,0,0,.173-1.012,3.93,3.93,0,0,1-1.121.672,6.4,6.4,0,0,1-1.452.167h-.046A5.246,5.246,0,0,1,8.024,4.963L7.871,6.209c0,.123-.048.2-.129.2A.243.243,0,0,1,7.6,6.341l-.952-.674Zm1.38-1.581a.862.862,0,0,1,.6.244,4.4,4.4,0,0,0,3.09,1.125h.013a5.826,5.826,0,0,0,1.218-.127A2.932,2.932,0,0,0,14.66,2.1,11.181,11.181,0,0,1,11.5,1.293l-.02-.008A5.027,5.027,0,0,0,9.617.873,3.452,3.452,0,0,0,6.93,2.219a.851.851,0,0,1-.439.33c-.761.257-.687,1.94-.619,2.651A2.176,2.176,0,0,1,6.1,4.987a.865.865,0,0,1,1.05-.036l.013-.1a.869.869,0,0,1,.572-.717A.857.857,0,0,1,8.025,4.086Z" transform="translate(0 5.081)" fill="#2372f5"/>
      <path id="Path_5" data-name="Path 5" d="M.1,4.782A1,1,0,0,0,1.1,5.875l13.865.019a1,1,0,0,0,1-1.084l-.247-2.922C15.2.85,12.781,0,12.781,0a11.466,11.466,0,0,1-4.43,1.106A11.466,11.466,0,0,1,3.922,0S.682.747.38,1.811Z" transform="translate(1.909 19.801)" fill="none" stroke="#2372f5" stroke-miterlimit="10" stroke-width="0.75"/>
      <path id="Path_6" data-name="Path 6" d="M0,4.13,3.6,0l.759.372A4,4,0,0,1,6.58,4.345L6.41,6.124a.5.5,0,0,1-.5.452L1.124,6.6" transform="translate(19.627 14.443)" fill="none" stroke="#2372f5" stroke-miterlimit="10" stroke-width="0.75"/>
    </g>
  </g>
</svg>
