<svg xmlns="http://www.w3.org/2000/svg" width="92" height="92" viewBox="0 0 92 92">
  <g id="Group_7" data-name="Group 7" transform="translate(-504 -1590)">
    <circle id="Oval" cx="46" cy="46" r="46" transform="translate(504 1590)" fill="#ffe9c2"/>
    <path id="Shape" d="M17.789,24H8.222a2.133,2.133,0,0,1-1.7-.864,2.1,2.1,0,0,1-.318-1.865L9.818,9.718A4.551,4.551,0,0,1,8.7,4.684a4.632,4.632,0,0,1,8.586,0,4.552,4.552,0,0,1-1.113,5.035L19.79,21.282a2.085,2.085,0,0,1-.31,1.869A2.116,2.116,0,0,1,17.789,24Zm-4.8-21.426A3.808,3.808,0,0,0,10.516,9.3a.387.387,0,0,1,.121.414L6.962,21.5a1.3,1.3,0,0,0,.186,1.179,1.32,1.32,0,0,0,1.059.535h9.581A1.305,1.305,0,0,0,19.034,21.5L15.36,9.71a.389.389,0,0,1,.105-.414,3.808,3.808,0,0,0-2.475-6.722Zm4.416,19.452H8.592l0-.011h0a.4.4,0,0,1-.317-.16.388.388,0,0,1-.058-.348l3.493-11.136a.393.393,0,0,1,.374-.271.462.462,0,0,1,.087.01,3.778,3.778,0,0,0,1.679,0,.461.461,0,0,1,.087-.01.394.394,0,0,1,.375.271l3.471,11.146a.391.391,0,0,1-.058.349A.4.4,0,0,1,17.407,22.026ZM12.345,10.944,9.125,21.232h7.747L13.658,10.944a4.629,4.629,0,0,1-.656.049,4.314,4.314,0,0,1-.656-.049ZM3.1,12.76H3.026a1.365,1.365,0,0,1-.977-.514,9.408,9.408,0,0,1,0-11.723,1.369,1.369,0,0,1,.988-.5c.025,0,.051,0,.076,0a1.37,1.37,0,0,1,.961.394L4.094.44A1.347,1.347,0,0,1,4.2,2.232a6.646,6.646,0,0,0,0,8.308,1.353,1.353,0,0,1-.1,1.777l-.026.029A1.387,1.387,0,0,1,3.1,12.76ZM2.666,1.008h0a8.628,8.628,0,0,0-.008,10.757.56.56,0,0,0,.417.214H3.1a.6.6,0,0,0,.423-.175l.026-.029a.564.564,0,0,0,.053-.761,7.422,7.422,0,0,1,0-9.279A.565.565,0,0,0,3.556.983L3.527.954a.587.587,0,0,0-.412-.17H3.081a.562.562,0,0,0-.413.225Zm20.3,11.741H22.9a1.387,1.387,0,0,1-.968-.4l-.029-.029a1.348,1.348,0,0,1-.11-1.795,6.648,6.648,0,0,0,0-8.309,1.351,1.351,0,0,1,.1-1.776l.029-.029A1.381,1.381,0,0,1,22.9,0l.053,0a1.37,1.37,0,0,1,1,.521,9.407,9.407,0,0,1,0,11.7A1.362,1.362,0,0,1,22.971,12.749ZM22.892.784a.594.594,0,0,0-.418.185L22.446,1a.568.568,0,0,0-.047.749,7.423,7.423,0,0,1,0,9.278.566.566,0,0,0,.047.754l.021.029a.6.6,0,0,0,.417.17h.032a.564.564,0,0,0,.415-.214A8.627,8.627,0,0,0,23.341,1a.56.56,0,0,0-.417-.214ZM5.873,9.948l-.079,0a1.318,1.318,0,0,1-.978-.6,5.53,5.53,0,0,1,0-5.893,1.321,1.321,0,0,1,.978-.6,1.2,1.2,0,0,1,.158-.009,1.367,1.367,0,0,1,.971.4l.055.055a1.325,1.325,0,0,1,.176,1.641,2.768,2.768,0,0,0,0,2.908A1.328,1.328,0,0,1,6.98,9.489l-.055.055a1.381,1.381,0,0,1-.97.4Zm.013-6.341a.531.531,0,0,0-.4.246,4.751,4.751,0,0,0,0,5.058.53.53,0,0,0,.4.245.506.506,0,0,0,.068,0,.593.593,0,0,0,.415-.17l.052-.055a.544.544,0,0,0,.058-.689,3.549,3.549,0,0,1,0-3.722.545.545,0,0,0-.058-.689l-.055-.054a.585.585,0,0,0-.415-.173ZM20.123,9.945l-.078,0a1.364,1.364,0,0,1-.971-.4l-.055-.055a1.324,1.324,0,0,1-.174-1.651,2.77,2.77,0,0,0,0-2.909,1.329,1.329,0,0,1,.174-1.651l.052-.055a1.383,1.383,0,0,1,.969-.4,1.1,1.1,0,0,1,.159.009,1.3,1.3,0,0,1,.979.6l0,.011a5.528,5.528,0,0,1,0,5.892,1.322,1.322,0,0,1-.979.6Zm-.078-6.34a.582.582,0,0,0-.415.171l-.052.055a.551.551,0,0,0-.06.691,3.545,3.545,0,0,1,0,3.724.545.545,0,0,0,.058.689l.055.054a.6.6,0,0,0,.416.171.406.406,0,0,0,.068,0,.529.529,0,0,0,.4-.245,4.746,4.746,0,0,0,0-5.058.528.528,0,0,0-.4-.246A.428.428,0,0,0,20.045,3.605Z" transform="translate(537 1624)" fill="#fba917"/>
  </g>
</svg>
